<svg xmlns="http://www.w3.org/2000/svg" height="512" width="512"><path fill="#0065bd" d="m256,74.611328c-19.01226,0-38.0236,4.22797-55.58594,12.685547l-3.60547,1.736328 1.73633,3.603516 50.24805,104.339841-112.90625-25.76953-1.7793,7.79883 112.90235,25.76953-90.54102,72.20508 4.98828,6.25586L252,211.0293v226.35937h8V211.0293l90.54297,72.20703 4.98828-6.25586-90.54102-72.20508 112.90235-25.76953-1.7793-7.79883-112.9043,25.76953 51.98243-107.943357-3.60547-1.736328C294.0236,78.839298 275.01226,74.611328 256,74.611328Zm0,7.998047c16.51314,0 32.97883,3.557966 48.41406,10.365234L256,193.50586 207.58594,92.974609C223.02117,86.167341 239.48686,82.609375 256,82.609375ZM256,281.63697A78.912468,78.912468 0 0 1 256,123.81203 78.912468,78.912468 0 0 1 256,281.63697Z"/></svg>
