<svg xmlns="http://www.w3.org/2000/svg" xmlns:xlink="http://www.w3.org/1999/xlink" height="512" viewBox="0 0 512 512" width="512">
  <defs>
    <linearGradient id="L">
      <stop offset="0" stop-color="#408d45" />
      <stop offset="1" stop-color="#406b8d" />
    </linearGradient>
    <linearGradient gradientTransform="matrix(3.7795275,0,0,3.7795275,5.9111162e-6,-610.51964)" gradientUnits="userSpaceOnUse" id="M" x1="21.084755" x2="103.98612" y1="226.35631" y2="226.35631" xlink:href="#L" />
  </defs>
  <path d="m 407.38769,305.58101 c 7.047,0.47965 12.00966,-1.86015 16.37132,-7.46428 4.48215,-6.16914 5.08635,-14.28571 -2.03189,-19.45742 -7.11823,-5.1717 -13.52046,-1.05012 -19.26277,3.26089 -4.19893,3.1847 -8.29889,5.93378 -11.80203,3.17108 -5.28492,-4.20224 -3.174,-8.90397 -1.62249,-11.03944 2.55137,-3.51167 5.23328,-4.60834 8.52357,-5.04549 l -0.35152,-4.60567 c -4.81699,0.343 -8.5896,2.24233 -11.96845,6.89292 -2.44793,3.3693 -6.12703,11.42697 2.45378,17.87881 6.47982,4.85287 12.18358,1.09388 17.92588,-3.21713 4.50072,-3.40047 8.67816,-6.45577 13.13892,-3.21484 4.55567,3.30988 4.23468,8.44201 1.26957,12.52314 -3.30136,4.34435 -7.3372,5.90744 -13.11627,5.47894 z m -21.2794,29.28859 c 7.047,0.47964 12.00966,-1.86015 16.37132,-7.46429 4.48214,-6.16914 5.08635,-14.28571 -2.03189,-19.45741 -7.11824,-5.1717 -13.52046,-1.05013 -19.26277,3.26089 -4.19893,3.1847 -8.29889,5.93377 -11.80203,3.17108 -5.28492,-4.20225 -3.17401,-8.90398 -1.62249,-11.03945 2.55137,-3.51166 5.23328,-4.60834 8.52356,-5.04548 l -0.35151,-4.60568 c -4.817,0.343 -8.5896,2.24234 -11.96845,6.89292 -2.44794,3.3693 -6.12703,11.42697 2.45378,17.87881 6.47982,4.85287 12.18358,1.09389 17.92588,-3.21713 4.50072,-3.40047 8.67816,-6.45577 13.13892,-3.21484 4.55567,3.30989 4.23467,8.44202 1.26956,12.52314 -3.30136,4.34436 -7.33719,5.90744 -13.11626,5.47894 z m -45.61894,-1.97729 c -5.1717,7.11823 -6.89141,18.26709 7.96198,29.05871 14.90085,10.8261 24.83025,5.64193 29.89852,-1.33394 5.44753,-7.49788 6.91737,-18.10322 -8.03093,-28.9638 -14.69805,-10.60625 -24.7613,-5.73685 -29.82957,1.23903 z m 3.55912,2.58585 c 3.68915,-5.07768 11.75229,-7.99253 23.33129,0.42011 11.73434,8.598 11.1561,16.87844 7.36352,22.09848 -3.48228,4.79295 -11.53652,8.2943 -23.35279,-0.29072 -11.62645,-8.44711 -10.92773,-17.29256 -7.34202,-22.22787 z m 4.03005,65.30693 -15.28048,-11.10192 c 0.99986,-1.37618 1.82733,-2.5151 2.79271,-3.84384 5.13875,-3.87947 18.76379,-0.57824 25.03776,-2.32783 l 3.68915,-5.07767 -0.0949,-0.069 c -6.82155,2.0043 -18.1821,-0.52176 -24.58548,1.20633 2.11093,-4.70172 2.21576,-10.93346 -5.20018,-16.39396 -6.72969,-4.30937 -13.43967,-3.45659 -17.7839,2.52274 -2.12463,3.02416 -3.38254,5.95298 -3.64385,9.60586 l -1.47111,-1.06882 -3.03407,4.17603 36.54029,26.54807 z m -13.73686,-20.7111 -5.10275,7.02333 -12.33827,-8.96428 c 0.1234,-3.46306 1.01907,-6.29255 3.01879,-9.04494 2.99959,-4.12857 7.51888,-4.76037 11.55255,-1.82974 6.41937,4.7365 5.02882,9.74404 2.86968,12.81563 z m -11.1789,55.0047 -28.85259,-20.96263 -0.69887,-0.43521 0.90571,0.15052 41.63096,3.27491 0.0475,0.0345 3.03407,-4.17604 -36.54029,-26.54807 -3.03407,4.17603 28.75768,20.89368 0.69888,0.43521 -0.90572,-0.15052 -41.53604,-3.20597 -0.0475,-0.0345 -3.03407,4.17603 36.54029,26.54808 z m -8.82152,12.14179 -36.54029,-26.54808 -3.03407,4.17604 36.54029,26.54807 z m -60.65174,6.63849 36.54029,26.54807 3.03406,-4.17603 -16.03975,-11.65357 c 1.29235,-2.9763 3.48228,-4.79295 6.77703,-4.93684 2.91955,-0.12646 17.48402,1.68218 20.36465,1.30992 l 3.55123,-4.88785 0.0345,-0.0475 c -5.26113,0.45533 -21.085,-1.61577 -24.83241,-1.14822 -2.5529,0.32035 -5.06648,1.68432 -6.10529,2.81472 l -7.36096,-25.79438 -3.75811,5.17259 7.01098,24.38002 -16.18213,-11.75701 z" style="font-weight:500;text-anchor:middle;text-align:center;font-family:Junction;font-size:58.65750504px;-inkscape-font-specification:'Junction Medium'" />
  <path d="M 236.35473,452.3383 317.61702,340.49082 212.15157,195.32986 324.98878,255.11216 274.1827,185.18376 387.0198,244.96541 236.35471,37.592525 85.689497,244.96545 200.76952,211.37959 v 191.9803 l -59.35801,-81.69928 59.35801,19.6453" style="fill:none;stroke:url(#M);stroke-linecap:round;stroke-width:12;stroke-linejoin:round" />
</svg>