<?xml version="1.0" encoding="UTF-8" standalone="no"?>
<svg xmlns:dc="http://purl.org/dc/elements/1.1/" xmlns:cc="http://creativecommons.org/ns#" xmlns:rdf="http://www.w3.org/1999/02/22-rdf-syntax-ns#" xmlns:svg="http://www.w3.org/2000/svg" xmlns="http://www.w3.org/2000/svg" xmlns:sodipodi="http://sodipodi.sourceforge.net/DTD/sodipodi-0.dtd" xmlns:inkscape="http://www.inkscape.org/namespaces/inkscape" width="1024" height="1024" version="1.1" id="svg6" inkscape:version="0.91+devel r" sodipodi:docname="rarify-logo.svg" viewBox="0 0 1024 1024">
  <metadata id="metadata12">
    <rdf:RDF>
      <cc:Work rdf:about="">
        <dc:format>image/svg+xml</dc:format>
        <dc:type rdf:resource="http://purl.org/dc/dcmitype/StillImage" />
        <dc:title></dc:title>
      </cc:Work>
    </rdf:RDF>
  </metadata>
  <defs id="defs10" />
  <sodipodi:namedview pagecolor="#ffffff" bordercolor="#666666" borderopacity="1" objecttolerance="10" gridtolerance="10" guidetolerance="10" inkscape:pageopacity="0" inkscape:pageshadow="2" inkscape:window-width="1364" inkscape:window-height="698" inkscape:document-units="px" id="namedview8" showgrid="true" inkscape:snap-smooth-nodes="true" inkscape:zoom="0.52539062" inkscape:cx="512" inkscape:cy="512" inkscape:window-x="0" inkscape:window-y="0" inkscape:window-maximized="1" inkscape:current-layer="svg6">
    <inkscape:grid type="xygrid" id="grid14" spacingx="16" spacingy="16" empspacing="8" />
  </sodipodi:namedview>
  <path d="m 416,512 96,-128 96,128 -96,128 z" id="path2" inkscape:connector-curvature="0" style="fill:#3a1750;fill-opacity:1" />
  <path style="fill:none;stroke:#3a1750;stroke-width:27;stroke-linecap:round;stroke-linejoin:round;stroke-opacity:1" d="M 704,384 512,640 128,128 V 896 L 512,384 704,640" id="path4" inkscape:connector-curvature="0" />
  <path id="path4183" style="opacity:1;fill:none;fill-opacity:1;fill-rule:nonzero;stroke:#3a1750;stroke-width:8;stroke-linecap:round;stroke-linejoin:round;stroke-miterlimit:4;stroke-dasharray:none;stroke-dashoffset:0;stroke-opacity:1" d="m 872,224 v 96 M 704,224 h 80 m -80,96 V 128 h 112 l 56,96 56,-96 m -240,0 v 192 m -64,-96 48,96 m -112,0 V 128 h 64 c 64,0 64,96 0,96 h -64 m -16,96 -56,-192 -56,192 -48,-96 m -64,96 V 128 h 64 c 64,0 64,96 0,96 h -64" inkscape:connector-curvature="0" sodipodi:nodetypes="cccccccccccccccsscccccccssc" />
</svg>
